# xmcd
#
# Track frame offsets: 
#        150
#        18890
#        36964
#        52773
#        77375
#        96989
#        118070
#        148741
#        172696
#        187213
#        203527
#
# Disc length: 3002 seconds
#
# Revision: 0
# Processed by: cddbd v1.5.2PL0 Copyright (c) Steve Scherf et al.
# Submitted via: ExactAudioCopy v0.95a5
#
DISCID=860bb80b
DTITLE=Obstawa Prezydenra - Siedem
DYEAR=2012
DGENRE=Blues
TTITLE0=nocne boogie
TTITLE1=milosc bez granic
TTITLE2=peace&love
TTITLE3=wlasne mysli
TTITLE4=poki zycie plynie
TTITLE5=ide po twych sladach
TTITLE6=ciagle wierze w milosc
TTITLE7=dobry humor mam
TTITLE8=blues o mojej ulicy
TTITLE9=tak daleko od trosk
TTITLE10=czas nas goni
EXTD=
EXTT0=
EXTT1=
EXTT2=
EXTT3=
EXTT4=
EXTT5=
EXTT6=
EXTT7=
EXTT8=
EXTT9=
EXTT10=
PLAYORDER=
